<?xml version="1.0" standalone="no"?>
<!DOCTYPE svg PUBLIC "-//W3C//DTD SVG 20010904//EN"
 "http://www.w3.org/TR/2001/REC-SVG-20010904/DTD/svg10.dtd">
<svg version="1.0" xmlns="http://www.w3.org/2000/svg"
 width="203.000000pt" height="60.000000pt" viewBox="0 0 203.000000 60.000000"
 preserveAspectRatio="xMidYMid meet">

<g transform="translate(0.000000,60.000000) scale(0.100000,-0.100000)"
fill="#000000" stroke="none">
<path d="M714 413 c-4 -16 -12 -32 -18 -36 -8 -6 -7 -10 2 -14 7 -3 12 -25 12
-60 0 -72 24 -68 28 5 2 37 7 52 18 52 7 0 14 5 14 10 0 6 -7 10 -15 10 -8 0
-15 9 -15 20 0 11 7 20 15 20 8 0 15 5 15 10 0 6 -11 10 -25 10 -19 0 -26 -7
-31 -27z"/>
<path d="M930 345 c0 -57 4 -95 10 -95 6 0 10 38 10 95 0 57 -4 95 -10 95 -6
0 -10 -38 -10 -95z"/>
<path d="M218 353 c-3 -67 -5 -78 -20 -77 -10 1 -18 -5 -18 -13 0 -10 9 -13
28 -11 27 3 27 3 30 91 2 53 -1 87 -7 87 -6 0 -11 -35 -13 -77z"/>
<path d="M530 420 c0 -5 7 -10 15 -10 8 0 15 5 15 10 0 6 -7 10 -15 10 -8 0
-15 -4 -15 -10z"/>
<path d="M990 401 c0 -11 -6 -22 -12 -25 -10 -5 -10 -7 0 -12 6 -3 12 -23 12
-44 0 -21 3 -45 6 -54 7 -17 54 -22 54 -6 0 6 -6 10 -14 10 -17 0 -26 22 -26
61 0 22 5 29 20 29 11 0 20 5 20 10 0 6 -7 10 -16 10 -9 0 -18 9 -21 20 -7 25
-23 26 -23 1z"/>
<path d="M290 361 c-15 -29 -12 -77 6 -95 37 -38 104 -7 104 48 0 48 -16 66
-60 66 -29 0 -42 -5 -50 -19z m75 -46 c0 -36 -3 -40 -25 -40 -18 0 -27 7 -34
27 -12 33 7 60 38 56 17 -2 21 -10 21 -43z"/>
<path d="M440 313 c0 -73 17 -86 22 -15 2 38 7 49 26 57 32 14 27 25 -13 23
l-35 -1 0 -64z"/>
<path d="M540 315 c0 -37 4 -65 10 -65 6 0 10 28 10 65 0 37 -4 65 -10 65 -6
0 -10 -28 -10 -65z"/>
<path d="M597 373 c-16 -15 -5 -45 23 -61 35 -20 34 -37 -3 -37 -16 1 -27 -5
-27 -12 0 -14 37 -17 64 -7 28 11 19 52 -14 69 -45 23 -39 41 13 36 9 -1 17 3
17 8 0 12 -62 15 -73 4z"/>
<path d="M797 373 c-16 -15 -5 -21 27 -16 25 4 35 1 39 -11 5 -12 0 -16 -16
-16 -35 0 -59 -22 -55 -51 3 -21 8 -24 51 -25 l47 -2 0 48 c0 70 -6 80 -49 80
-21 0 -41 -3 -44 -7z m71 -75 c-7 -21 -36 -34 -49 -21 -6 6 -8 16 -5 22 10 15
59 14 54 -1z"/>
<path d="M1080 361 c-15 -29 -12 -77 6 -96 18 -17 87 -18 82 0 -2 5 -13 8 -26
6 -23 -3 -52 14 -52 30 0 5 20 9 45 9 40 0 45 2 45 23 0 32 -18 47 -57 47 -22
0 -36 -6 -43 -19z m74 -16 c4 -12 -3 -15 -29 -15 -26 0 -33 3 -29 15 4 8 16
15 29 15 13 0 25 -7 29 -15z"/>
<path d="M1220 313 c0 -73 17 -86 22 -15 2 38 7 49 26 57 32 14 27 25 -13 23
l-35 -1 0 -64z"/>
<path d="M1392 368 c-16 -16 -15 -80 1 -102 9 -12 23 -17 42 -14 37 4 46 28
10 25 -34 -2 -50 21 -41 58 6 23 11 27 36 23 21 -3 30 0 30 9 0 17 -61 18 -78
1z"/>
<path d="M1510 361 c-15 -29 -12 -77 6 -95 37 -38 104 -7 104 48 0 48 -16 66
-60 66 -29 0 -42 -5 -50 -19z m75 -46 c0 -36 -3 -40 -25 -40 -18 0 -27 7 -34
27 -12 33 7 60 38 56 17 -2 21 -10 21 -43z"/>
<path d="M1660 314 c0 -77 18 -86 22 -11 3 44 6 52 24 55 24 3 34 -19 34 -75
0 -54 19 -37 22 20 3 45 6 52 25 55 20 3 22 -2 25 -49 4 -74 28 -79 28 -6 0
32 -5 59 -12 65 -7 5 -48 10 -90 10 l-78 -1 0 -63z"/>
<path d="M1320 265 c0 -9 5 -15 11 -13 6 2 11 8 11 13 0 5 -5 11 -11 13 -6 2
-11 -4 -11 -13z"/>
</g>
</svg>
